# File created by Blade
# Date/Time:  Thu Jan 22 16:52:56 2015
# Frame Rate: 120.000 fps
#------------------------------------------------------
:FULLY-SPECIFIED
:DEGREES
1878
root 3.547567 3.815733 0.048082 -32.813273 9.188381 -13.249347
RightUpLeg -26.953991 -39.632874 -36.764486
RightLeg -1.481553 -0.000000 0.000000
RightFoot 3.004609 -29.417252 30.149238
RightToeBase 6.306686 -0.000000 -0.000000
LeftUpLeg -62.059583 20.024748 12.594547
LeftLeg 4.101858 -0.000000 -0.000000
LeftFoot 8.066124 31.750956 -37.938546
LeftToeBase -2.113402 -0.000000 0.000000
Spine 73.650048 21.457037 -16.900286
RightShoulder -0.417862 9.785401 -52.105966
RightArm 79.904582 46.504250 36.487620
RightForeArm -27.649448 -0.000000 35.464370
RightHand 2.736916 -0.000000 -0.415438
RightHandThumb1 -24.326973 -0.000000 -32.862282
LeftShoulder 15.439811 -34.593745 49.610405
LeftArm 26.128087 -34.381496 -62.824011
LeftForeArm 49.584804 -0.000000 41.903144
LeftHand -32.097227 0.000000 0.761776
LeftHandThumb1 -26.253704 0.000000 33.147579
Head 66.516350 33.265011 4.745005
1879
root 3.548671 3.815947 0.048033 -32.815053 9.197169 -13.260470
RightUpLeg -26.948988 -39.644669 -36.764296
RightLeg -1.473624 -0.000000 0.000000
RightFoot 3.026757 -29.413797 30.106435
RightToeBase 6.274502 -0.000000 -0.000000
LeftUpLeg -62.056232 20.013308 12.594928
LeftLeg 4.088865 -0.000000 -0.000000
LeftFoot 8.053168 31.763111 -37.942468
LeftToeBase -2.132166 -0.000000 0.000000
Spine 73.668836 21.465591 -16.839771
RightShoulder -0.414375 9.726550 -52.040480
RightArm 79.900222 46.527869 36.390284
RightForeArm -27.636590 -0.000000 35.443455
RightHand 2.784421 -0.000000 -0.472485
RightHandThumb1 -24.326973 -0.000000 -32.862282
LeftShoulder 15.479851 -34.604707 49.639490
LeftArm 26.129941 -34.372728 -62.835378
LeftForeArm 49.569577 -0.000000 41.883411
LeftHand -32.104892 -0.000000 0.810842
LeftHandThumb1 -26.253704 0.000000 33.147579
Head 66.614949 33.135977 4.907005
1880
root 3.549257 3.816973 0.048193 -32.812006 9.206723 -13.262259
RightUpLeg -26.955056 -39.659709 -36.763885
RightLeg -1.463193 -0.000000 0.000000
RightFoot 3.052700 -29.385038 30.082316
RightToeBase 6.294706 -0.000000 -0.000000
LeftUpLeg -62.058623 20.009541 12.581307
LeftLeg 4.076648 -0.000000 -0.000000
LeftFoot 8.052685 31.781196 -37.957310
LeftToeBase -2.139957 -0.000000 0.000000
Spine 73.683695 21.471514 -16.802561
RightShoulder -0.412509 9.686736 -51.983424
RightArm 79.913339 46.539153 36.313757
RightForeArm -27.597375 -0.000000 35.422307
RightHand 2.824343 0.000000 -0.498141
RightHandThumb1 -24.326973 -0.000000 -32.862282
LeftShoulder 15.496211 -34.594622 49.659116
LeftArm 26.158274 -34.376392 -62.849748
LeftForeArm 49.504989 -0.000000 41.873762
LeftHand -32.090226 -0.000000 0.780897
LeftHandThumb1 -26.253704 0.000000 33.147579
Head 66.697935 33.044384 5.041026
1881
root 3.550612 3.816153 0.048538 -32.803429 9.216979 -13.263321
RightUpLeg -26.943062 -39.642004 -36.787422
RightLeg -1.469398 -0.000000 0.000000
RightFoot 3.060151 -29.395412 30.076558
RightToeBase 6.257042 -0.000000 -0.000000
LeftUpLeg -62.072275 20.005636 12.564458
LeftLeg 4.073773 -0.000000 -0.000000
LeftFoot 8.046364 31.789417 -37.973423
LeftToeBase -2.143978 -0.000000 0.000000
Spine 73.691977 21.467886 -16.762250
RightShoulder -0.416074 9.617553 -51.922355
RightArm 79.988095 46.560415 36.259373
RightForeArm -27.536417 -0.000000 35.363092
RightHand 2.869283 -0.000000 -0.536011
RightHandThumb1 -24.326973 -0.000000 -32.862282
LeftShoulder 15.531997 -34.584660 49.665581
LeftArm 26.157177 -34.385837 -62.860297
LeftForeArm 49.512337 -0.000000 41.894264
LeftHand -32.121738 -0.000000 0.778724
LeftHandThumb1 -26.253704 0.000000 33.147579
Head 66.775543 32.935947 5.139183
1882
root 3.551551 3.816004 0.049071 -32.804034 9.232149 -13.271672
RightUpLeg -26.906273 -39.627916 -36.817238
RightLeg -1.488221 -0.000000 0.000000
RightFoot 3.068049 -29.381031 30.079902
RightToeBase 6.237563 -0.000000 -0.000000
LeftUpLeg -62.074143 19.990448 12.561208
LeftLeg 4.066809 -0.000000 -0.000000
LeftFoot 8.037705 31.804162 -38.009571
LeftToeBase -2.146095 -0.000000 0.000000
Spine 73.710545 21.464494 -16.721836
RightShoulder -0.411221 9.562332 -51.852901
RightArm 80.043566 46.571384 36.204596
RightForeArm -27.488015 -0.000000 35.323160
RightHand 2.841791 -0.000000 -0.591529
RightHandThumb1 -24.326973 -0.000000 -32.862282
LeftShoulder 15.558378 -34.566090 49.688305
LeftArm 26.110494 -34.317347 -62.777595
LeftForeArm 49.360967 -0.000000 41.910068
LeftHand -32.153104 0.000000 0.885105
LeftHandThumb1 -26.253704 0.000000 33.147579
Head 66.886168 32.837709 5.326942
